# xmcd CD database file
#
# Track frame offsets:
#	182
#	15462
#	31372
#	48945
#	65890
#	84632
#	108800
#	129927
#	145787
#	154492
#
# Disc length: 2271 seconds
#
# Revision: 0
# Processed by: cddbd v1.5.2PL0 Copyright (c) Steve Scherf et al.
# Submitted via: CDex 1.51
#
DISCID=7f08dd0a
DTITLE=Raimundo Amador - Gerundina
DYEAR=1995
DGENRE=Blues
TTITLE0=Ay Morena
TTITLE1=Pata Palo
TTITLE2=Ishmael
TTITLE3=Antonia
TTITLE4=Ay Que Gustito Pa' Mis Orejas
TTITLE5=Getano de Temporá
TTITLE6=Bolleré
TTITLE7=Gerundina
TTITLE8=Acaporni Colocao
TTITLE9=La Viciosa De Los Gatos
EXTD=YEAR: 1995
EXTT0=
EXTT1=
EXTT2=
EXTT3=
EXTT4=
EXTT5=
EXTT6=
EXTT7=
EXTT8=
EXTT9=
PLAYORDER=
